{
	"asset":{
		"generator":"Khronos glTF Blender I/O v4.5.47",
		"version":"2.0"
	},
	"extensionsUsed":[
		"KHR_materials_clearcoat"
	],
	"scene":0,
	"scenes":[
		{
			"name":"Scene",
			"nodes":[
				0,
				1,
				2
			]
		}
	],
	"nodes":[
		{
			"mesh":0,
			"name":"Camaro_CarPaint_0",
			"translation":[
				0,
				0,
				-2.3083322048187256
			]
		},
		{
			"mesh":1,
			"name":"Camaro_Plastic_0",
			"translation":[
				0,
				0,
				-2.3083322048187256
			]
		},
		{
			"mesh":2,
			"name":"Camaro_Window_0",
			"translation":[
				0,
				0,
				-2.3083322048187256
			]
		}
	],
	"materials":[
		{
			"doubleSided":true,
			"extensions":{
				"KHR_materials_clearcoat":{
					"clearcoatFactor":1,
					"clearcoatRoughnessFactor":0.20000000298023224
				}
			},
			"name":"CarPaint",
			"pbrMetallicRoughness":{
				"baseColorFactor":[
					0.5225020051002502,
					0,
					0.0004948499845340848,
					1
				],
				"roughnessFactor":0.5
			}
		},
		{
			"doubleSided":true,
			"name":"Plastic",
			"pbrMetallicRoughness":{
				"baseColorFactor":[
					0,
					0,
					0,
					1
				],
				"metallicFactor":0,
				"roughnessFactor":0.6000000238418579
			}
		},
		{
			"doubleSided":true,
			"name":"Window",
			"pbrMetallicRoughness":{
				"baseColorFactor":[
					0,
					0,
					0,
					1
				],
				"metallicFactor":0,
				"roughnessFactor":0.10000000149011612
			}
		}
	],
	"meshes":[
		{
			"name":"Camaro_CarPaint_0",
			"primitives":[
				{
					"attributes":{
						"POSITION":0,
						"NORMAL":1,
						"TEXCOORD_0":2
					},
					"indices":3,
					"material":0
				}
			]
		},
		{
			"name":"Camaro_Plastic_0",
			"primitives":[
				{
					"attributes":{
						"POSITION":4,
						"NORMAL":5,
						"TEXCOORD_0":6
					},
					"indices":7,
					"material":1
				}
			]
		},
		{
			"name":"Camaro_Window_0",
			"primitives":[
				{
					"attributes":{
						"POSITION":8,
						"NORMAL":9,
						"TEXCOORD_0":10
					},
					"indices":11,
					"material":2
				}
			]
		}
	],
	"accessors":[
		{
			"bufferView":0,
			"componentType":5126,
			"count":1365,
			"max":[
				0.9956030249595642,
				1.3310834169387817,
				4.67061710357666
			],
			"min":[
				-0.9956030249595642,
				0.16604739427566528,
				-0.003949670121073723
			],
			"type":"VEC3"
		},
		{
			"bufferView":1,
			"componentType":5126,
			"count":1365,
			"type":"VEC3"
		},
		{
			"bufferView":2,
			"componentType":5126,
			"count":1365,
			"type":"VEC2"
		},
		{
			"bufferView":3,
			"componentType":5123,
			"count":5064,
			"type":"SCALAR"
		},
		{
			"bufferView":4,
			"componentType":5126,
			"count":1015,
			"max":[
				0.992308497428894,
				1.2788383960723877,
				4.67061710357666
			],
			"min":[
				-0.992308497428894,
				0.16604739427566528,
				-0.014613171108067036
			],
			"type":"VEC3"
		},
		{
			"bufferView":5,
			"componentType":5126,
			"count":1015,
			"type":"VEC3"
		},
		{
			"bufferView":6,
			"componentType":5126,
			"count":1015,
			"type":"VEC2"
		},
		{
			"bufferView":7,
			"componentType":5123,
			"count":2508,
			"type":"SCALAR"
		},
		{
			"bufferView":8,
			"componentType":5126,
			"count":66,
			"max":[
				0.7820208668708801,
				1.262757420539856,
				3.199636697769165
			],
			"min":[
				-0.7820208668708801,
				0.9289764761924744,
				0.5446141958236694
			],
			"type":"VEC3"
		},
		{
			"bufferView":9,
			"componentType":5126,
			"count":66,
			"type":"VEC3"
		},
		{
			"bufferView":10,
			"componentType":5126,
			"count":66,
			"type":"VEC2"
		},
		{
			"bufferView":11,
			"componentType":5123,
			"count":204,
			"type":"SCALAR"
		}
	],
	"bufferViews":[
		{
			"buffer":0,
			"byteLength":16380,
			"byteOffset":0,
			"target":34962
		},
		{
			"buffer":0,
			"byteLength":16380,
			"byteOffset":16380,
			"target":34962
		},
		{
			"buffer":0,
			"byteLength":10920,
			"byteOffset":32760,
			"target":34962
		},
		{
			"buffer":0,
			"byteLength":10128,
			"byteOffset":43680,
			"target":34963
		},
		{
			"buffer":0,
			"byteLength":12180,
			"byteOffset":53808,
			"target":34962
		},
		{
			"buffer":0,
			"byteLength":12180,
			"byteOffset":65988,
			"target":34962
		},
		{
			"buffer":0,
			"byteLength":8120,
			"byteOffset":78168,
			"target":34962
		},
		{
			"buffer":0,
			"byteLength":5016,
			"byteOffset":86288,
			"target":34963
		},
		{
			"buffer":0,
			"byteLength":792,
			"byteOffset":91304,
			"target":34962
		},
		{
			"buffer":0,
			"byteLength":792,
			"byteOffset":92096,
			"target":34962
		},
		{
			"buffer":0,
			"byteLength":528,
			"byteOffset":92888,
			"target":34962
		},
		{
			"buffer":0,
			"byteLength":408,
			"byteOffset":93416,
			"target":34963
		}
	],
	"buffers":[
		{
			"byteLength":93824,
			"uri":"car_no_wheels.bin"
		}
	]
}
