{
	"asset":{
		"generator":"Khronos glTF Blender I/O v4.5.47",
		"version":"2.0"
	},
	"extensionsUsed":[
		"KHR_materials_clearcoat"
	],
	"scene":0,
	"scenes":[
		{
			"name":"Scene",
			"nodes":[
				0
			]
		}
	],
	"nodes":[
		{
			"mesh":0,
			"name":"Camaro_CarPaint_0",
			"translation":[
				0,
				0,
				-2.3083322048187256
			]
		}
	],
	"materials":[
		{
			"doubleSided":true,
			"extensions":{
				"KHR_materials_clearcoat":{
					"clearcoatFactor":1,
					"clearcoatRoughnessFactor":0.20000000298023224
				}
			},
			"name":"CarPaint",
			"pbrMetallicRoughness":{
				"baseColorTexture":{
					"index":0
				},
				"roughnessFactor":0.5
			}
		},
		{
			"doubleSided":true,
			"name":"Window",
			"pbrMetallicRoughness":{
				"baseColorTexture":{
					"index":1
				},
				"metallicFactor":0,
				"roughnessFactor":0.10000000149011612
			}
		}
	],
	"meshes":[
		{
			"name":"Camaro_CarPaint_0",
			"primitives":[
				{
					"attributes":{
						"POSITION":0,
						"NORMAL":1,
						"TEXCOORD_0":2
					},
					"indices":3,
					"material":0
				},
				{
					"attributes":{
						"POSITION":4,
						"NORMAL":5,
						"TEXCOORD_0":6
					},
					"indices":7,
					"material":1
				}
			]
		}
	],
	"textures":[
		{
			"sampler":0,
			"source":0
		},
		{
			"sampler":0,
			"source":0
		}
	],
	"images":[
		{
			"mimeType":"image/png",
			"name":"CarPaint",
			"uri":"CarPaint.png"
		}
	],
	"accessors":[
		{
			"bufferView":0,
			"componentType":5126,
			"count":1567,
			"max":[
				0.9956030249595642,
				1.3310834169387817,
				4.67061710357666
			],
			"min":[
				-0.9956030249595642,
				0.16604739427566528,
				-0.003949670121073723
			],
			"type":"VEC3"
		},
		{
			"bufferView":1,
			"componentType":5126,
			"count":1567,
			"type":"VEC3"
		},
		{
			"bufferView":2,
			"componentType":5126,
			"count":1567,
			"type":"VEC2"
		},
		{
			"bufferView":3,
			"componentType":5123,
			"count":5064,
			"type":"SCALAR"
		},
		{
			"bufferView":4,
			"componentType":5126,
			"count":70,
			"max":[
				0.7820208668708801,
				1.262757420539856,
				3.199636697769165
			],
			"min":[
				-0.7820208668708801,
				0.9289764761924744,
				0.5446141958236694
			],
			"type":"VEC3"
		},
		{
			"bufferView":5,
			"componentType":5126,
			"count":70,
			"type":"VEC3"
		},
		{
			"bufferView":6,
			"componentType":5126,
			"count":70,
			"type":"VEC2"
		},
		{
			"bufferView":7,
			"componentType":5123,
			"count":204,
			"type":"SCALAR"
		}
	],
	"bufferViews":[
		{
			"buffer":0,
			"byteLength":18804,
			"byteOffset":0,
			"target":34962
		},
		{
			"buffer":0,
			"byteLength":18804,
			"byteOffset":18804,
			"target":34962
		},
		{
			"buffer":0,
			"byteLength":12536,
			"byteOffset":37608,
			"target":34962
		},
		{
			"buffer":0,
			"byteLength":10128,
			"byteOffset":50144,
			"target":34963
		},
		{
			"buffer":0,
			"byteLength":840,
			"byteOffset":60272,
			"target":34962
		},
		{
			"buffer":0,
			"byteLength":840,
			"byteOffset":61112,
			"target":34962
		},
		{
			"buffer":0,
			"byteLength":560,
			"byteOffset":61952,
			"target":34962
		},
		{
			"buffer":0,
			"byteLength":408,
			"byteOffset":62512,
			"target":34963
		}
	],
	"samplers":[
		{
			"magFilter":9729,
			"minFilter":9987
		}
	],
	"buffers":[
		{
			"byteLength":62920,
			"uri":"car_textured.bin"
		}
	]
}
